<mxfile host="app.diagrams.net" modified="2024-02-16T13:50:24.915Z" agent="Mozilla/5.0 (Windows NT 10.0; Win64; x64) AppleWebKit/537.36 (KHTML, like Gecko) Chrome/121.0.0.0 Safari/537.36" etag="RxNGtQS_SpiDjEDsPhoT" version="23.1.4" type="device">
  <diagram id="R2lEEEUBdFMjLlhIrx00" name="Page-1">
    <mxGraphModel dx="2140" dy="1622" grid="1" gridSize="10" guides="1" tooltips="1" connect="1" arrows="1" fold="1" page="1" pageScale="1" pageWidth="850" pageHeight="1100" math="0" shadow="0" extFonts="Permanent Marker^https://fonts.googleapis.com/css?family=Permanent+Marker">
      <root>
        <mxCell id="0" />
        <mxCell id="1" parent="0" />
        <mxCell id="nwu90o907hgscEtCztIc-3" value="Password" style="ellipse;whiteSpace=wrap;html=1;" parent="1" vertex="1">
          <mxGeometry x="227.5" y="80" width="100" height="50" as="geometry" />
        </mxCell>
        <mxCell id="nwu90o907hgscEtCztIc-4" value="Leave Status" style="ellipse;whiteSpace=wrap;html=1;" parent="1" vertex="1">
          <mxGeometry x="-150" y="110" width="111" height="50" as="geometry" />
        </mxCell>
        <mxCell id="nwu90o907hgscEtCztIc-5" value="Register" style="rhombus;whiteSpace=wrap;html=1;" parent="1" vertex="1">
          <mxGeometry x="350" y="160" width="85" height="80" as="geometry" />
        </mxCell>
        <mxCell id="nwu90o907hgscEtCztIc-8" value="Emergency meet" style="rounded=0;whiteSpace=wrap;html=1;" parent="1" vertex="1">
          <mxGeometry x="100" y="15" width="120" height="40" as="geometry" />
        </mxCell>
        <mxCell id="nwu90o907hgscEtCztIc-12" value="" style="endArrow=none;html=1;rounded=0;" parent="1" source="nwu90o907hgscEtCztIc-2" target="nwu90o907hgscEtCztIc-14" edge="1">
          <mxGeometry relative="1" as="geometry">
            <mxPoint x="100" y="160" as="sourcePoint" />
            <mxPoint x="150" y="180" as="targetPoint" />
          </mxGeometry>
        </mxCell>
        <mxCell id="nwu90o907hgscEtCztIc-14" value="&amp;nbsp; &amp;nbsp; &amp;nbsp;Admin" style="whiteSpace=wrap;html=1;align=center;" parent="1" vertex="1">
          <mxGeometry x="-10" y="180" width="230" height="40" as="geometry" />
        </mxCell>
        <mxCell id="nwu90o907hgscEtCztIc-18" value="" style="endArrow=none;html=1;rounded=0;exitX=0.92;exitY=0.033;exitDx=0;exitDy=0;exitPerimeter=0;entryX=0;entryY=1;entryDx=0;entryDy=0;" parent="1" source="nwu90o907hgscEtCztIc-14" target="nwu90o907hgscEtCztIc-3" edge="1">
          <mxGeometry relative="1" as="geometry">
            <mxPoint x="110" y="170" as="sourcePoint" />
            <mxPoint x="220" y="160" as="targetPoint" />
          </mxGeometry>
        </mxCell>
        <mxCell id="nwu90o907hgscEtCztIc-21" value="" style="endArrow=classic;html=1;rounded=0;exitX=1;exitY=0.5;exitDx=0;exitDy=0;" parent="1" source="nwu90o907hgscEtCztIc-14" edge="1">
          <mxGeometry width="50" height="50" relative="1" as="geometry">
            <mxPoint x="250" y="200" as="sourcePoint" />
            <mxPoint x="350" y="200" as="targetPoint" />
          </mxGeometry>
        </mxCell>
        <mxCell id="nwu90o907hgscEtCztIc-22" value="" style="endArrow=classic;html=1;rounded=0;entryX=0.5;entryY=1;entryDx=0;entryDy=0;" parent="1" edge="1" target="nwu90o907hgscEtCztIc-8">
          <mxGeometry width="50" height="50" relative="1" as="geometry">
            <mxPoint x="160" y="180" as="sourcePoint" />
            <mxPoint x="90" y="80" as="targetPoint" />
          </mxGeometry>
        </mxCell>
        <mxCell id="nwu90o907hgscEtCztIc-23" value="Desc" style="ellipse;whiteSpace=wrap;html=1;align=center;" parent="1" vertex="1">
          <mxGeometry x="-40" y="-25" width="100" height="40" as="geometry" />
        </mxCell>
        <mxCell id="nwu90o907hgscEtCztIc-24" value="Tittle" style="ellipse;whiteSpace=wrap;html=1;align=center;" parent="1" vertex="1">
          <mxGeometry x="40" y="-65" width="100" height="40" as="geometry" />
        </mxCell>
        <mxCell id="nwu90o907hgscEtCztIc-25" value="Location" style="ellipse;whiteSpace=wrap;html=1;align=center;" parent="1" vertex="1">
          <mxGeometry x="317.5" y="-40" width="100" height="40" as="geometry" />
        </mxCell>
        <mxCell id="nwu90o907hgscEtCztIc-26" value="Time" style="ellipse;whiteSpace=wrap;html=1;align=center;" parent="1" vertex="1">
          <mxGeometry x="198.72" y="-75.24000000000001" width="100" height="40" as="geometry" />
        </mxCell>
        <mxCell id="nwu90o907hgscEtCztIc-29" value="Attendance master" style="whiteSpace=wrap;html=1;align=center;" parent="1" vertex="1">
          <mxGeometry x="560" y="185" width="100" height="40" as="geometry" />
        </mxCell>
        <mxCell id="nwu90o907hgscEtCztIc-30" value="" style="endArrow=classic;html=1;rounded=0;" parent="1" edge="1">
          <mxGeometry width="50" height="50" relative="1" as="geometry">
            <mxPoint x="440" y="200" as="sourcePoint" />
            <mxPoint x="560" y="200" as="targetPoint" />
            <Array as="points" />
          </mxGeometry>
        </mxCell>
        <mxCell id="nwu90o907hgscEtCztIc-32" value="UserId" style="ellipse;whiteSpace=wrap;html=1;align=center;" parent="1" vertex="1">
          <mxGeometry x="375" y="100" width="100" height="40" as="geometry" />
        </mxCell>
        <mxCell id="nwu90o907hgscEtCztIc-2" value="Username" style="ellipse;whiteSpace=wrap;html=1;" parent="1" vertex="1">
          <mxGeometry x="-10" y="80" width="110" height="40" as="geometry" />
        </mxCell>
        <mxCell id="nwu90o907hgscEtCztIc-34" value="Mobile" style="ellipse;whiteSpace=wrap;html=1;align=center;" parent="1" vertex="1">
          <mxGeometry x="435" y="50" width="100" height="40" as="geometry" />
        </mxCell>
        <mxCell id="nwu90o907hgscEtCztIc-35" value="Password" style="ellipse;whiteSpace=wrap;html=1;align=center;" parent="1" vertex="1">
          <mxGeometry x="580" y="50" width="100" height="40" as="geometry" />
        </mxCell>
        <mxCell id="nwu90o907hgscEtCztIc-36" value="Image" style="ellipse;whiteSpace=wrap;html=1;align=center;" parent="1" vertex="1">
          <mxGeometry x="700" y="70" width="100" height="40" as="geometry" />
        </mxCell>
        <mxCell id="nwu90o907hgscEtCztIc-37" value="Email" style="ellipse;whiteSpace=wrap;html=1;align=center;" parent="1" vertex="1">
          <mxGeometry x="760" y="140" width="100" height="40" as="geometry" />
        </mxCell>
        <mxCell id="nwu90o907hgscEtCztIc-38" value="id" style="ellipse;whiteSpace=wrap;html=1;align=center;" parent="1" vertex="1">
          <mxGeometry x="740" y="200" width="100" height="40" as="geometry" />
        </mxCell>
        <mxCell id="nwu90o907hgscEtCztIc-39" value="Name" style="ellipse;whiteSpace=wrap;html=1;align=center;" parent="1" vertex="1">
          <mxGeometry x="650" y="250" width="100" height="40" as="geometry" />
        </mxCell>
        <mxCell id="nwu90o907hgscEtCztIc-41" value="" style="endArrow=none;html=1;rounded=0;" parent="1" edge="1">
          <mxGeometry relative="1" as="geometry">
            <mxPoint x="510" y="90" as="sourcePoint" />
            <mxPoint x="590" y="180" as="targetPoint" />
          </mxGeometry>
        </mxCell>
        <mxCell id="nwu90o907hgscEtCztIc-43" value="" style="endArrow=none;html=1;rounded=0;" parent="1" edge="1">
          <mxGeometry relative="1" as="geometry">
            <mxPoint x="620" y="90" as="sourcePoint" />
            <mxPoint x="610" y="180" as="targetPoint" />
          </mxGeometry>
        </mxCell>
        <mxCell id="nwu90o907hgscEtCztIc-44" value="" style="endArrow=none;html=1;rounded=0;entryX=0;entryY=0;entryDx=0;entryDy=0;" parent="1" target="nwu90o907hgscEtCztIc-29" edge="1">
          <mxGeometry relative="1" as="geometry">
            <mxPoint x="460" y="135" as="sourcePoint" />
            <mxPoint x="540" y="225" as="targetPoint" />
          </mxGeometry>
        </mxCell>
        <mxCell id="nwu90o907hgscEtCztIc-45" value="" style="endArrow=none;html=1;rounded=0;entryX=0.75;entryY=0;entryDx=0;entryDy=0;" parent="1" target="nwu90o907hgscEtCztIc-29" edge="1">
          <mxGeometry relative="1" as="geometry">
            <mxPoint x="720" y="110" as="sourcePoint" />
            <mxPoint x="660" y="170" as="targetPoint" />
          </mxGeometry>
        </mxCell>
        <mxCell id="nwu90o907hgscEtCztIc-46" value="" style="endArrow=none;html=1;rounded=0;entryX=1;entryY=0.25;entryDx=0;entryDy=0;exitX=0;exitY=0.5;exitDx=0;exitDy=0;" parent="1" source="nwu90o907hgscEtCztIc-37" target="nwu90o907hgscEtCztIc-29" edge="1">
          <mxGeometry relative="1" as="geometry">
            <mxPoint x="730" y="120" as="sourcePoint" />
            <mxPoint x="645" y="195" as="targetPoint" />
          </mxGeometry>
        </mxCell>
        <mxCell id="nwu90o907hgscEtCztIc-47" value="" style="endArrow=none;html=1;rounded=0;entryX=1;entryY=0.5;entryDx=0;entryDy=0;exitX=0;exitY=0.5;exitDx=0;exitDy=0;" parent="1" source="nwu90o907hgscEtCztIc-38" target="nwu90o907hgscEtCztIc-29" edge="1">
          <mxGeometry relative="1" as="geometry">
            <mxPoint x="740" y="130" as="sourcePoint" />
            <mxPoint x="655" y="205" as="targetPoint" />
          </mxGeometry>
        </mxCell>
        <mxCell id="nwu90o907hgscEtCztIc-48" value="" style="endArrow=none;html=1;rounded=0;exitX=0.309;exitY=0.117;exitDx=0;exitDy=0;exitPerimeter=0;" parent="1" source="nwu90o907hgscEtCztIc-39" edge="1">
          <mxGeometry relative="1" as="geometry">
            <mxPoint x="750" y="230" as="sourcePoint" />
            <mxPoint x="640" y="230" as="targetPoint" />
          </mxGeometry>
        </mxCell>
        <mxCell id="nwu90o907hgscEtCztIc-50" value="" style="endArrow=none;html=1;rounded=0;entryX=0.653;entryY=1.006;entryDx=0;entryDy=0;entryPerimeter=0;exitX=0.1;exitY=-0.106;exitDx=0;exitDy=0;exitPerimeter=0;" parent="1" source="nwu90o907hgscEtCztIc-8" target="nwu90o907hgscEtCztIc-24" edge="1">
          <mxGeometry relative="1" as="geometry">
            <mxPoint x="280" y="15" as="sourcePoint" />
            <mxPoint x="229" y="15" as="targetPoint" />
          </mxGeometry>
        </mxCell>
        <mxCell id="nwu90o907hgscEtCztIc-54" value="" style="endArrow=none;html=1;rounded=0;exitX=0.413;exitY=0.881;exitDx=0;exitDy=0;exitPerimeter=0;entryX=0.9;entryY=0.015;entryDx=0;entryDy=0;entryPerimeter=0;" parent="1" source="nwu90o907hgscEtCztIc-26" target="nwu90o907hgscEtCztIc-8" edge="1">
          <mxGeometry relative="1" as="geometry">
            <mxPoint x="258.85999999999996" y="-48.879999999999995" as="sourcePoint" />
            <mxPoint x="210" y="10" as="targetPoint" />
          </mxGeometry>
        </mxCell>
        <mxCell id="nwu90o907hgscEtCztIc-56" value="" style="endArrow=none;html=1;rounded=0;exitX=0;exitY=0.5;exitDx=0;exitDy=0;entryX=1;entryY=1;entryDx=0;entryDy=0;" parent="1" source="nwu90o907hgscEtCztIc-8" target="nwu90o907hgscEtCztIc-23" edge="1">
          <mxGeometry relative="1" as="geometry">
            <mxPoint x="77" y="45" as="sourcePoint" />
            <mxPoint x="60" y="15" as="targetPoint" />
          </mxGeometry>
        </mxCell>
        <mxCell id="nwu90o907hgscEtCztIc-57" value="" style="endArrow=none;html=1;rounded=0;entryX=1;entryY=0.5;entryDx=0;entryDy=0;exitX=0;exitY=1;exitDx=0;exitDy=0;" parent="1" edge="1" source="nwu90o907hgscEtCztIc-25">
          <mxGeometry relative="1" as="geometry">
            <mxPoint x="270" as="sourcePoint" />
            <mxPoint x="220" y="20" as="targetPoint" />
          </mxGeometry>
        </mxCell>
        <mxCell id="nwu90o907hgscEtCztIc-59" value="Generate" style="rhombus;whiteSpace=wrap;html=1;" parent="1" vertex="1">
          <mxGeometry x="360" y="340" width="85" height="80" as="geometry" />
        </mxCell>
        <mxCell id="nwu90o907hgscEtCztIc-60" value="Register" style="rhombus;whiteSpace=wrap;html=1;" parent="1" vertex="1">
          <mxGeometry x="360" y="490" width="85" height="80" as="geometry" />
        </mxCell>
        <mxCell id="nwu90o907hgscEtCztIc-62" value="Schedule Report" style="whiteSpace=wrap;html=1;align=center;" parent="1" vertex="1">
          <mxGeometry x="127.5" y="360" width="100" height="40" as="geometry" />
        </mxCell>
        <mxCell id="nwu90o907hgscEtCztIc-63" value="View" style="rhombus;whiteSpace=wrap;html=1;" parent="1" vertex="1">
          <mxGeometry x="135" y="250" width="85" height="80" as="geometry" />
        </mxCell>
        <mxCell id="nwu90o907hgscEtCztIc-65" value="" style="endArrow=none;html=1;rounded=0;" parent="1" edge="1">
          <mxGeometry relative="1" as="geometry">
            <mxPoint x="177" y="360" as="sourcePoint" />
            <mxPoint x="176.94" y="330" as="targetPoint" />
          </mxGeometry>
        </mxCell>
        <mxCell id="nwu90o907hgscEtCztIc-66" value="" style="endArrow=none;html=1;rounded=0;" parent="1" edge="1">
          <mxGeometry relative="1" as="geometry">
            <mxPoint x="176.94" y="250" as="sourcePoint" />
            <mxPoint x="176.94" y="220" as="targetPoint" />
          </mxGeometry>
        </mxCell>
        <mxCell id="nwu90o907hgscEtCztIc-67" value="" style="endArrow=none;html=1;rounded=0;" parent="1" edge="1">
          <mxGeometry relative="1" as="geometry">
            <mxPoint x="230" y="380" as="sourcePoint" />
            <mxPoint x="360" y="380" as="targetPoint" />
          </mxGeometry>
        </mxCell>
        <mxCell id="nwu90o907hgscEtCztIc-68" value="" style="endArrow=classic;html=1;rounded=0;exitX=0;exitY=1;exitDx=0;exitDy=0;entryX=1;entryY=0.5;entryDx=0;entryDy=0;" parent="1" source="nwu90o907hgscEtCztIc-29" target="nwu90o907hgscEtCztIc-59" edge="1">
          <mxGeometry width="50" height="50" relative="1" as="geometry">
            <mxPoint x="435" y="269.44" as="sourcePoint" />
            <mxPoint x="450" y="380" as="targetPoint" />
            <Array as="points" />
          </mxGeometry>
        </mxCell>
        <mxCell id="nwu90o907hgscEtCztIc-69" value="" style="endArrow=classic;html=1;rounded=0;exitX=0.25;exitY=1;exitDx=0;exitDy=0;entryX=1;entryY=0.5;entryDx=0;entryDy=0;" parent="1" source="nwu90o907hgscEtCztIc-29" target="nwu90o907hgscEtCztIc-60" edge="1">
          <mxGeometry width="50" height="50" relative="1" as="geometry">
            <mxPoint x="560" y="380" as="sourcePoint" />
            <mxPoint x="450" y="520" as="targetPoint" />
            <Array as="points" />
          </mxGeometry>
        </mxCell>
        <mxCell id="nwu90o907hgscEtCztIc-70" value="View" style="rhombus;whiteSpace=wrap;html=1;" parent="1" vertex="1">
          <mxGeometry x="135" y="490" width="85" height="80" as="geometry" />
        </mxCell>
        <mxCell id="nwu90o907hgscEtCztIc-71" value="" style="endArrow=none;html=1;rounded=0;" parent="1" edge="1">
          <mxGeometry relative="1" as="geometry">
            <mxPoint x="180" y="490" as="sourcePoint" />
            <mxPoint x="180" y="400" as="targetPoint" />
          </mxGeometry>
        </mxCell>
        <mxCell id="nwu90o907hgscEtCztIc-73" value="Policemen" style="whiteSpace=wrap;html=1;align=center;" parent="1" vertex="1">
          <mxGeometry x="227.5" y="680" width="100" height="40" as="geometry" />
        </mxCell>
        <mxCell id="nwu90o907hgscEtCztIc-74" value="Password" style="ellipse;whiteSpace=wrap;html=1;align=center;" parent="1" vertex="1">
          <mxGeometry y="610" width="100" height="40" as="geometry" />
        </mxCell>
        <mxCell id="nwu90o907hgscEtCztIc-75" value="Desg" style="ellipse;whiteSpace=wrap;html=1;align=center;" parent="1" vertex="1">
          <mxGeometry x="-10" y="680" width="100" height="40" as="geometry" />
        </mxCell>
        <mxCell id="nwu90o907hgscEtCztIc-76" value="Dept" style="ellipse;whiteSpace=wrap;html=1;align=center;" parent="1" vertex="1">
          <mxGeometry y="750" width="100" height="40" as="geometry" />
        </mxCell>
        <mxCell id="nwu90o907hgscEtCztIc-77" value="User_Id" style="ellipse;whiteSpace=wrap;html=1;align=center;" parent="1" vertex="1">
          <mxGeometry x="120" y="600" width="100" height="40" as="geometry" />
        </mxCell>
        <mxCell id="nwu90o907hgscEtCztIc-78" value="Email" style="ellipse;whiteSpace=wrap;html=1;align=center;" parent="1" vertex="1">
          <mxGeometry x="100" y="800" width="100" height="40" as="geometry" />
        </mxCell>
        <mxCell id="nwu90o907hgscEtCztIc-79" value="Mobile" style="ellipse;whiteSpace=wrap;html=1;align=center;" parent="1" vertex="1">
          <mxGeometry x="240" y="800" width="100" height="40" as="geometry" />
        </mxCell>
        <mxCell id="nwu90o907hgscEtCztIc-80" value="Name" style="ellipse;whiteSpace=wrap;html=1;align=center;" parent="1" vertex="1">
          <mxGeometry x="400" y="790" width="100" height="40" as="geometry" />
        </mxCell>
        <mxCell id="nwu90o907hgscEtCztIc-81" value="Id" style="ellipse;whiteSpace=wrap;html=1;align=center;" parent="1" vertex="1">
          <mxGeometry x="425" y="690" width="100" height="40" as="geometry" />
        </mxCell>
        <mxCell id="nwu90o907hgscEtCztIc-82" value="Belt_No" style="ellipse;whiteSpace=wrap;html=1;align=center;" parent="1" vertex="1">
          <mxGeometry x="420" y="600" width="100" height="40" as="geometry" />
        </mxCell>
        <mxCell id="nwu90o907hgscEtCztIc-84" value="" style="endArrow=none;html=1;rounded=0;entryX=1;entryY=1;entryDx=0;entryDy=0;exitX=0.078;exitY=-0.106;exitDx=0;exitDy=0;exitPerimeter=0;" parent="1" source="nwu90o907hgscEtCztIc-73" target="nwu90o907hgscEtCztIc-77" edge="1">
          <mxGeometry relative="1" as="geometry">
            <mxPoint x="230" y="670" as="sourcePoint" />
            <mxPoint x="400" y="690" as="targetPoint" />
          </mxGeometry>
        </mxCell>
        <mxCell id="nwu90o907hgscEtCztIc-85" value="" style="endArrow=none;html=1;rounded=0;entryX=1;entryY=1;entryDx=0;entryDy=0;exitX=0;exitY=0;exitDx=0;exitDy=0;" parent="1" source="nwu90o907hgscEtCztIc-73" target="nwu90o907hgscEtCztIc-74" edge="1">
          <mxGeometry relative="1" as="geometry">
            <mxPoint x="245" y="686" as="sourcePoint" />
            <mxPoint x="215" y="644" as="targetPoint" />
          </mxGeometry>
        </mxCell>
        <mxCell id="nwu90o907hgscEtCztIc-86" value="" style="endArrow=none;html=1;rounded=0;entryX=1;entryY=0.5;entryDx=0;entryDy=0;exitX=0;exitY=0.5;exitDx=0;exitDy=0;" parent="1" source="nwu90o907hgscEtCztIc-73" target="nwu90o907hgscEtCztIc-76" edge="1">
          <mxGeometry relative="1" as="geometry">
            <mxPoint x="220" y="710" as="sourcePoint" />
            <mxPoint x="225" y="654" as="targetPoint" />
          </mxGeometry>
        </mxCell>
        <mxCell id="nwu90o907hgscEtCztIc-87" value="" style="endArrow=none;html=1;rounded=0;entryX=1;entryY=0.5;entryDx=0;entryDy=0;exitX=0;exitY=0.5;exitDx=0;exitDy=0;" parent="1" source="nwu90o907hgscEtCztIc-73" target="nwu90o907hgscEtCztIc-75" edge="1">
          <mxGeometry relative="1" as="geometry">
            <mxPoint x="265" y="706" as="sourcePoint" />
            <mxPoint x="235" y="664" as="targetPoint" />
          </mxGeometry>
        </mxCell>
        <mxCell id="nwu90o907hgscEtCztIc-88" value="" style="endArrow=none;html=1;rounded=0;exitX=0.25;exitY=1;exitDx=0;exitDy=0;" parent="1" source="nwu90o907hgscEtCztIc-73" edge="1">
          <mxGeometry relative="1" as="geometry">
            <mxPoint x="275" y="716" as="sourcePoint" />
            <mxPoint x="170" y="800" as="targetPoint" />
          </mxGeometry>
        </mxCell>
        <mxCell id="nwu90o907hgscEtCztIc-89" value="" style="endArrow=none;html=1;rounded=0;entryX=0.5;entryY=0;entryDx=0;entryDy=0;" parent="1" target="nwu90o907hgscEtCztIc-79" edge="1">
          <mxGeometry relative="1" as="geometry">
            <mxPoint x="290" y="720" as="sourcePoint" />
            <mxPoint x="255" y="684" as="targetPoint" />
          </mxGeometry>
        </mxCell>
        <mxCell id="nwu90o907hgscEtCztIc-90" value="" style="endArrow=none;html=1;rounded=0;entryX=0.02;entryY=0.172;entryDx=0;entryDy=0;entryPerimeter=0;exitX=0.825;exitY=1;exitDx=0;exitDy=0;exitPerimeter=0;" parent="1" source="nwu90o907hgscEtCztIc-73" target="nwu90o907hgscEtCztIc-80" edge="1">
          <mxGeometry relative="1" as="geometry">
            <mxPoint x="300" y="730" as="sourcePoint" />
            <mxPoint x="300" y="810" as="targetPoint" />
          </mxGeometry>
        </mxCell>
        <mxCell id="nwu90o907hgscEtCztIc-91" value="" style="endArrow=none;html=1;rounded=0;entryX=0;entryY=0.5;entryDx=0;entryDy=0;exitX=1;exitY=0.5;exitDx=0;exitDy=0;" parent="1" source="nwu90o907hgscEtCztIc-73" target="nwu90o907hgscEtCztIc-81" edge="1">
          <mxGeometry relative="1" as="geometry">
            <mxPoint x="320" y="730" as="sourcePoint" />
            <mxPoint x="412" y="807" as="targetPoint" />
          </mxGeometry>
        </mxCell>
        <mxCell id="nwu90o907hgscEtCztIc-92" value="" style="endArrow=none;html=1;rounded=0;entryX=0.02;entryY=0.783;entryDx=0;entryDy=0;entryPerimeter=0;exitX=1;exitY=0;exitDx=0;exitDy=0;" parent="1" source="nwu90o907hgscEtCztIc-73" target="nwu90o907hgscEtCztIc-82" edge="1">
          <mxGeometry relative="1" as="geometry">
            <mxPoint x="330" y="740" as="sourcePoint" />
            <mxPoint x="422" y="817" as="targetPoint" />
          </mxGeometry>
        </mxCell>
        <mxCell id="nwu90o907hgscEtCztIc-93" value="" style="endArrow=classic;html=1;rounded=0;exitX=0;exitY=0.5;exitDx=0;exitDy=0;entryX=0.5;entryY=0;entryDx=0;entryDy=0;" parent="1" source="nwu90o907hgscEtCztIc-60" target="nwu90o907hgscEtCztIc-73" edge="1">
          <mxGeometry width="50" height="50" relative="1" as="geometry">
            <mxPoint x="300" y="520" as="sourcePoint" />
            <mxPoint x="240" y="620" as="targetPoint" />
            <Array as="points">
              <mxPoint x="278" y="530" />
            </Array>
          </mxGeometry>
        </mxCell>
        <mxCell id="nwu90o907hgscEtCztIc-94" value="" style="endArrow=none;html=1;rounded=0;" parent="1" edge="1">
          <mxGeometry relative="1" as="geometry">
            <mxPoint x="170" y="590" as="sourcePoint" />
            <mxPoint x="250" y="680" as="targetPoint" />
            <Array as="points">
              <mxPoint x="250" y="590" />
            </Array>
          </mxGeometry>
        </mxCell>
        <mxCell id="nwu90o907hgscEtCztIc-96" value="" style="endArrow=classic;html=1;rounded=0;" parent="1" edge="1">
          <mxGeometry width="50" height="50" relative="1" as="geometry">
            <mxPoint x="176.94" y="590" as="sourcePoint" />
            <mxPoint x="176.94" y="570" as="targetPoint" />
          </mxGeometry>
        </mxCell>
        <mxCell id="nwu90o907hgscEtCztIc-97" value="Duty Schedule" style="rhombus;whiteSpace=wrap;html=1;" parent="1" vertex="1">
          <mxGeometry x="670" y="350" width="100" height="80" as="geometry" />
        </mxCell>
        <mxCell id="nwu90o907hgscEtCztIc-101" value="Add Activity" style="rhombus;whiteSpace=wrap;html=1;" parent="1" vertex="1">
          <mxGeometry x="670" y="520" width="100" height="80" as="geometry" />
        </mxCell>
        <mxCell id="nwu90o907hgscEtCztIc-106" value="" style="endArrow=classic;html=1;rounded=0;entryX=0;entryY=0.5;entryDx=0;entryDy=0;exitX=0.598;exitY=0.964;exitDx=0;exitDy=0;exitPerimeter=0;" parent="1" source="nwu90o907hgscEtCztIc-29" target="nwu90o907hgscEtCztIc-97" edge="1">
          <mxGeometry width="50" height="50" relative="1" as="geometry">
            <mxPoint x="610" y="340" as="sourcePoint" />
            <mxPoint x="510" y="370" as="targetPoint" />
            <Array as="points">
              <mxPoint x="620" y="390" />
            </Array>
          </mxGeometry>
        </mxCell>
        <mxCell id="nwu90o907hgscEtCztIc-108" value="" style="endArrow=classic;html=1;rounded=0;entryX=0;entryY=0.5;entryDx=0;entryDy=0;exitX=0.42;exitY=0.992;exitDx=0;exitDy=0;exitPerimeter=0;" parent="1" source="nwu90o907hgscEtCztIc-29" edge="1">
          <mxGeometry width="50" height="50" relative="1" as="geometry">
            <mxPoint x="621" y="392" as="sourcePoint" />
            <mxPoint x="671" y="558" as="targetPoint" />
            <Array as="points">
              <mxPoint x="600" y="558" />
            </Array>
          </mxGeometry>
        </mxCell>
        <mxCell id="nwu90o907hgscEtCztIc-110" value="Activity" style="whiteSpace=wrap;html=1;align=center;" parent="1" vertex="1">
          <mxGeometry x="850" y="540" width="100" height="40" as="geometry" />
        </mxCell>
        <mxCell id="nwu90o907hgscEtCztIc-111" value="Schedule" style="whiteSpace=wrap;html=1;align=center;" parent="1" vertex="1">
          <mxGeometry x="850" y="370" width="100" height="40" as="geometry" />
        </mxCell>
        <mxCell id="nwu90o907hgscEtCztIc-112" value="Schedule_Id" style="ellipse;whiteSpace=wrap;html=1;align=center;" parent="1" vertex="1">
          <mxGeometry x="850" y="300" width="100" height="40" as="geometry" />
        </mxCell>
        <mxCell id="nwu90o907hgscEtCztIc-113" value="Officer_Id" style="ellipse;whiteSpace=wrap;html=1;align=center;" parent="1" vertex="1">
          <mxGeometry x="980" y="300" width="100" height="40" as="geometry" />
        </mxCell>
        <mxCell id="nwu90o907hgscEtCztIc-114" value="Activity" style="ellipse;whiteSpace=wrap;html=1;align=center;" parent="1" vertex="1">
          <mxGeometry x="990" y="370" width="100" height="40" as="geometry" />
        </mxCell>
        <mxCell id="nwu90o907hgscEtCztIc-115" value="Date" style="ellipse;whiteSpace=wrap;html=1;align=center;" parent="1" vertex="1">
          <mxGeometry x="990" y="440" width="100" height="40" as="geometry" />
        </mxCell>
        <mxCell id="nwu90o907hgscEtCztIc-116" value="Id" style="ellipse;whiteSpace=wrap;html=1;align=center;" parent="1" vertex="1">
          <mxGeometry x="1000" y="510" width="100" height="40" as="geometry" />
        </mxCell>
        <mxCell id="nwu90o907hgscEtCztIc-117" value="" style="endArrow=none;html=1;rounded=0;" parent="1" edge="1">
          <mxGeometry width="50" height="50" relative="1" as="geometry">
            <mxPoint x="899" y="370" as="sourcePoint" />
            <mxPoint x="899.44" y="340" as="targetPoint" />
          </mxGeometry>
        </mxCell>
        <mxCell id="nwu90o907hgscEtCztIc-120" value="" style="endArrow=none;html=1;rounded=0;entryX=0;entryY=1;entryDx=0;entryDy=0;" parent="1" target="nwu90o907hgscEtCztIc-113" edge="1">
          <mxGeometry width="50" height="50" relative="1" as="geometry">
            <mxPoint x="950" y="370" as="sourcePoint" />
            <mxPoint x="950.44" y="340" as="targetPoint" />
          </mxGeometry>
        </mxCell>
        <mxCell id="nwu90o907hgscEtCztIc-121" value="" style="endArrow=none;html=1;rounded=0;exitX=1;exitY=0.5;exitDx=0;exitDy=0;" parent="1" source="nwu90o907hgscEtCztIc-111" edge="1">
          <mxGeometry width="50" height="50" relative="1" as="geometry">
            <mxPoint x="960" y="380" as="sourcePoint" />
            <mxPoint x="990" y="390" as="targetPoint" />
          </mxGeometry>
        </mxCell>
        <mxCell id="nwu90o907hgscEtCztIc-122" value="" style="endArrow=none;html=1;rounded=0;exitX=1;exitY=1;exitDx=0;exitDy=0;" parent="1" source="nwu90o907hgscEtCztIc-111" edge="1">
          <mxGeometry width="50" height="50" relative="1" as="geometry">
            <mxPoint x="960" y="400" as="sourcePoint" />
            <mxPoint x="990" y="460" as="targetPoint" />
          </mxGeometry>
        </mxCell>
        <mxCell id="nwu90o907hgscEtCztIc-126" value="" style="endArrow=none;html=1;rounded=0;exitX=0.5;exitY=0;exitDx=0;exitDy=0;entryX=0.6;entryY=1;entryDx=0;entryDy=0;entryPerimeter=0;" parent="1" source="nwu90o907hgscEtCztIc-127" target="nwu90o907hgscEtCztIc-111" edge="1">
          <mxGeometry width="50" height="50" relative="1" as="geometry">
            <mxPoint x="900" y="450" as="sourcePoint" />
            <mxPoint x="900" y="410" as="targetPoint" />
          </mxGeometry>
        </mxCell>
        <mxCell id="nwu90o907hgscEtCztIc-127" value="Status" style="ellipse;whiteSpace=wrap;html=1;align=center;" parent="1" vertex="1">
          <mxGeometry x="860" y="460" width="100" height="40" as="geometry" />
        </mxCell>
        <mxCell id="nwu90o907hgscEtCztIc-128" value="Name" style="ellipse;whiteSpace=wrap;html=1;align=center;" parent="1" vertex="1">
          <mxGeometry x="1000" y="580" width="100" height="40" as="geometry" />
        </mxCell>
        <mxCell id="nwu90o907hgscEtCztIc-129" value="Time" style="ellipse;whiteSpace=wrap;html=1;align=center;" parent="1" vertex="1">
          <mxGeometry x="850" y="630" width="100" height="40" as="geometry" />
        </mxCell>
        <mxCell id="nwu90o907hgscEtCztIc-130" value="" style="endArrow=none;html=1;rounded=0;exitX=0;exitY=0.5;exitDx=0;exitDy=0;" parent="1" source="nwu90o907hgscEtCztIc-116" edge="1">
          <mxGeometry width="50" height="50" relative="1" as="geometry">
            <mxPoint x="1030" y="530" as="sourcePoint" />
            <mxPoint x="950" y="540" as="targetPoint" />
          </mxGeometry>
        </mxCell>
        <mxCell id="nwu90o907hgscEtCztIc-131" value="" style="endArrow=none;html=1;rounded=0;exitX=0;exitY=0.5;exitDx=0;exitDy=0;entryX=1;entryY=1;entryDx=0;entryDy=0;" parent="1" source="nwu90o907hgscEtCztIc-128" target="nwu90o907hgscEtCztIc-110" edge="1">
          <mxGeometry width="50" height="50" relative="1" as="geometry">
            <mxPoint x="1010" y="540" as="sourcePoint" />
            <mxPoint x="960" y="550" as="targetPoint" />
          </mxGeometry>
        </mxCell>
        <mxCell id="nwu90o907hgscEtCztIc-132" value="" style="endArrow=none;html=1;rounded=0;exitX=0.5;exitY=0;exitDx=0;exitDy=0;entryX=0.5;entryY=1;entryDx=0;entryDy=0;" parent="1" source="nwu90o907hgscEtCztIc-129" target="nwu90o907hgscEtCztIc-110" edge="1">
          <mxGeometry width="50" height="50" relative="1" as="geometry">
            <mxPoint x="1010" y="610" as="sourcePoint" />
            <mxPoint x="960" y="590" as="targetPoint" />
          </mxGeometry>
        </mxCell>
        <mxCell id="nwu90o907hgscEtCztIc-134" value="" style="endArrow=classic;html=1;rounded=0;entryX=0;entryY=0.5;entryDx=0;entryDy=0;" parent="1" source="nwu90o907hgscEtCztIc-101" target="nwu90o907hgscEtCztIc-110" edge="1">
          <mxGeometry width="50" height="50" relative="1" as="geometry">
            <mxPoint x="750" y="630" as="sourcePoint" />
            <mxPoint x="800" y="580" as="targetPoint" />
          </mxGeometry>
        </mxCell>
        <mxCell id="nwu90o907hgscEtCztIc-135" value="" style="endArrow=classic;html=1;rounded=0;entryX=0;entryY=0.5;entryDx=0;entryDy=0;" parent="1" edge="1">
          <mxGeometry width="50" height="50" relative="1" as="geometry">
            <mxPoint x="770" y="389.44" as="sourcePoint" />
            <mxPoint x="850" y="389.44" as="targetPoint" />
          </mxGeometry>
        </mxCell>
        <mxCell id="nwu90o907hgscEtCztIc-136" value="Activity" style="whiteSpace=wrap;html=1;align=center;" parent="1" vertex="1">
          <mxGeometry x="850" y="760" width="100" height="40" as="geometry" />
        </mxCell>
        <mxCell id="nwu90o907hgscEtCztIc-137" value="Apply for&lt;br&gt;Leave" style="rhombus;whiteSpace=wrap;html=1;" parent="1" vertex="1">
          <mxGeometry x="630" y="740" width="100" height="80" as="geometry" />
        </mxCell>
        <mxCell id="nwu90o907hgscEtCztIc-138" value="" style="endArrow=classic;html=1;rounded=0;entryX=0;entryY=0.5;entryDx=0;entryDy=0;exitX=1;exitY=0.5;exitDx=0;exitDy=0;" parent="1" source="nwu90o907hgscEtCztIc-137" target="nwu90o907hgscEtCztIc-136" edge="1">
          <mxGeometry width="50" height="50" relative="1" as="geometry">
            <mxPoint x="760" y="779.44" as="sourcePoint" />
            <mxPoint x="840" y="779.44" as="targetPoint" />
          </mxGeometry>
        </mxCell>
        <mxCell id="nwu90o907hgscEtCztIc-139" value="" style="endArrow=classic;html=1;rounded=0;entryX=0;entryY=0.5;entryDx=0;entryDy=0;" parent="1" edge="1">
          <mxGeometry width="50" height="50" relative="1" as="geometry">
            <mxPoint x="560" y="779" as="sourcePoint" />
            <mxPoint x="630" y="779.44" as="targetPoint" />
          </mxGeometry>
        </mxCell>
        <mxCell id="nwu90o907hgscEtCztIc-140" value="" style="endArrow=none;html=1;rounded=0;entryX=0.75;entryY=0;entryDx=0;entryDy=0;" parent="1" target="nwu90o907hgscEtCztIc-73" edge="1">
          <mxGeometry width="50" height="50" relative="1" as="geometry">
            <mxPoint x="560" y="780" as="sourcePoint" />
            <mxPoint x="560" y="570" as="targetPoint" />
            <Array as="points">
              <mxPoint x="560" y="580" />
              <mxPoint x="303" y="580" />
            </Array>
          </mxGeometry>
        </mxCell>
        <mxCell id="nwu90o907hgscEtCztIc-141" value="Id" style="ellipse;whiteSpace=wrap;html=1;align=center;" parent="1" vertex="1">
          <mxGeometry x="850" y="690" width="100" height="40" as="geometry" />
        </mxCell>
        <mxCell id="nwu90o907hgscEtCztIc-142" value="From_Date" style="ellipse;whiteSpace=wrap;html=1;align=center;" parent="1" vertex="1">
          <mxGeometry x="1000" y="690" width="100" height="40" as="geometry" />
        </mxCell>
        <mxCell id="nwu90o907hgscEtCztIc-143" value="To_Date" style="ellipse;whiteSpace=wrap;html=1;align=center;" parent="1" vertex="1">
          <mxGeometry x="1000" y="830" width="100" height="40" as="geometry" />
        </mxCell>
        <mxCell id="nwu90o907hgscEtCztIc-144" value="Reason" style="ellipse;whiteSpace=wrap;html=1;align=center;" parent="1" vertex="1">
          <mxGeometry x="850" y="830" width="100" height="40" as="geometry" />
        </mxCell>
        <mxCell id="nwu90o907hgscEtCztIc-145" value="" style="endArrow=none;html=1;rounded=0;entryX=0;entryY=1;entryDx=0;entryDy=0;" parent="1" target="nwu90o907hgscEtCztIc-142" edge="1">
          <mxGeometry width="50" height="50" relative="1" as="geometry">
            <mxPoint x="950" y="770" as="sourcePoint" />
            <mxPoint x="1000" y="720" as="targetPoint" />
          </mxGeometry>
        </mxCell>
        <mxCell id="nwu90o907hgscEtCztIc-146" value="" style="endArrow=none;html=1;rounded=0;exitX=1;exitY=1;exitDx=0;exitDy=0;" parent="1" source="nwu90o907hgscEtCztIc-136" target="nwu90o907hgscEtCztIc-143" edge="1">
          <mxGeometry width="50" height="50" relative="1" as="geometry">
            <mxPoint x="960" y="780" as="sourcePoint" />
            <mxPoint x="1025" y="734" as="targetPoint" />
          </mxGeometry>
        </mxCell>
        <mxCell id="nwu90o907hgscEtCztIc-147" value="" style="endArrow=none;html=1;rounded=0;exitX=0.5;exitY=1;exitDx=0;exitDy=0;entryX=0.5;entryY=0;entryDx=0;entryDy=0;" parent="1" source="nwu90o907hgscEtCztIc-136" target="nwu90o907hgscEtCztIc-144" edge="1">
          <mxGeometry width="50" height="50" relative="1" as="geometry">
            <mxPoint x="891" y="800" as="sourcePoint" />
            <mxPoint x="960" y="834" as="targetPoint" />
          </mxGeometry>
        </mxCell>
        <mxCell id="nwu90o907hgscEtCztIc-148" value="" style="endArrow=none;html=1;rounded=0;exitX=0.5;exitY=1;exitDx=0;exitDy=0;entryX=0.5;entryY=0;entryDx=0;entryDy=0;" parent="1" edge="1">
          <mxGeometry width="50" height="50" relative="1" as="geometry">
            <mxPoint x="899.44" y="730" as="sourcePoint" />
            <mxPoint x="899.44" y="760" as="targetPoint" />
          </mxGeometry>
        </mxCell>
        <mxCell id="nwu90o907hgscEtCztIc-149" value="Leave" style="whiteSpace=wrap;html=1;align=center;" parent="1" vertex="1">
          <mxGeometry x="-470" y="375" width="100" height="40" as="geometry" />
        </mxCell>
        <mxCell id="nwu90o907hgscEtCztIc-150" value="Id" style="ellipse;whiteSpace=wrap;html=1;" parent="1" vertex="1">
          <mxGeometry x="-595" y="325" width="110" height="40" as="geometry" />
        </mxCell>
        <mxCell id="nwu90o907hgscEtCztIc-151" value="Apply Leave" style="rhombus;whiteSpace=wrap;html=1;" parent="1" vertex="1">
          <mxGeometry x="-190" y="355" width="85" height="80" as="geometry" />
        </mxCell>
        <mxCell id="nwu90o907hgscEtCztIc-155" value="To_Date" style="ellipse;whiteSpace=wrap;html=1;" parent="1" vertex="1">
          <mxGeometry x="-350" y="415" width="110" height="40" as="geometry" />
        </mxCell>
        <mxCell id="nwu90o907hgscEtCztIc-158" value="" style="endArrow=none;html=1;rounded=0;entryX=0;entryY=0.5;entryDx=0;entryDy=0;exitX=1;exitY=1;exitDx=0;exitDy=0;" parent="1" source="nwu90o907hgscEtCztIc-149" target="nwu90o907hgscEtCztIc-155" edge="1">
          <mxGeometry width="50" height="50" relative="1" as="geometry">
            <mxPoint x="230" y="-30" as="sourcePoint" />
            <mxPoint x="300" y="-70" as="targetPoint" />
          </mxGeometry>
        </mxCell>
        <mxCell id="nwu90o907hgscEtCztIc-159" value="" style="endArrow=none;html=1;rounded=0;entryX=0;entryY=1;entryDx=0;entryDy=0;exitX=1;exitY=1;exitDx=0;exitDy=0;" parent="1" source="nwu90o907hgscEtCztIc-156" target="nwu90o907hgscEtCztIc-149" edge="1">
          <mxGeometry width="50" height="50" relative="1" as="geometry">
            <mxPoint x="-440" y="-75" as="sourcePoint" />
            <mxPoint x="-380" y="-55" as="targetPoint" />
          </mxGeometry>
        </mxCell>
        <mxCell id="nwu90o907hgscEtCztIc-156" value="Reason" style="ellipse;whiteSpace=wrap;html=1;" parent="1" vertex="1">
          <mxGeometry x="-600" y="415" width="110" height="40" as="geometry" />
        </mxCell>
        <mxCell id="nwu90o907hgscEtCztIc-154" value="From_Date" style="ellipse;whiteSpace=wrap;html=1;" parent="1" vertex="1">
          <mxGeometry x="-350" y="325" width="110" height="40" as="geometry" />
        </mxCell>
        <mxCell id="15ZCXB6HI7PK215MOb9F-2" value="user 1" style="rounded=0;whiteSpace=wrap;html=1;" vertex="1" parent="1">
          <mxGeometry x="-40" y="270" width="120" height="40" as="geometry" />
        </mxCell>
        <mxCell id="15ZCXB6HI7PK215MOb9F-3" value="user 2" style="rounded=0;whiteSpace=wrap;html=1;" vertex="1" parent="1">
          <mxGeometry x="-39" y="340" width="120" height="40" as="geometry" />
        </mxCell>
        <mxCell id="15ZCXB6HI7PK215MOb9F-4" value="&lt;br&gt;&lt;span style=&quot;color: rgb(0, 0, 0); font-family: Helvetica; font-size: 12px; font-style: normal; font-variant-ligatures: normal; font-variant-caps: normal; font-weight: 400; letter-spacing: normal; orphans: 2; text-align: center; text-indent: 0px; text-transform: none; widows: 2; word-spacing: 0px; -webkit-text-stroke-width: 0px; background-color: rgb(251, 251, 251); text-decoration-thickness: initial; text-decoration-style: initial; text-decoration-color: initial; float: none; display: inline !important;&quot;&gt;user 3&lt;/span&gt;&lt;br&gt;" style="rounded=0;whiteSpace=wrap;html=1;" vertex="1" parent="1">
          <mxGeometry x="-39" y="410" width="120" height="40" as="geometry" />
        </mxCell>
        <mxCell id="15ZCXB6HI7PK215MOb9F-5" value="&lt;br&gt;&lt;span style=&quot;color: rgb(0, 0, 0); font-family: Helvetica; font-size: 12px; font-style: normal; font-variant-ligatures: normal; font-variant-caps: normal; font-weight: 400; letter-spacing: normal; orphans: 2; text-align: center; text-indent: 0px; text-transform: none; widows: 2; word-spacing: 0px; -webkit-text-stroke-width: 0px; background-color: rgb(251, 251, 251); text-decoration-thickness: initial; text-decoration-style: initial; text-decoration-color: initial; float: none; display: inline !important;&quot;&gt;user n&lt;/span&gt;" style="rounded=0;whiteSpace=wrap;html=1;" vertex="1" parent="1">
          <mxGeometry x="-39" y="480" width="120" height="40" as="geometry" />
        </mxCell>
        <mxCell id="15ZCXB6HI7PK215MOb9F-8" value="" style="endArrow=classic;html=1;rounded=0;entryX=0.113;entryY=1.03;entryDx=0;entryDy=0;entryPerimeter=0;" edge="1" parent="1">
          <mxGeometry width="50" height="50" relative="1" as="geometry">
            <mxPoint x="21" y="339" as="sourcePoint" />
            <mxPoint x="20.5" y="310" as="targetPoint" />
          </mxGeometry>
        </mxCell>
        <mxCell id="15ZCXB6HI7PK215MOb9F-9" value="" style="endArrow=classic;html=1;rounded=0;entryX=0.113;entryY=1.03;entryDx=0;entryDy=0;entryPerimeter=0;" edge="1" parent="1">
          <mxGeometry width="50" height="50" relative="1" as="geometry">
            <mxPoint x="21" y="410" as="sourcePoint" />
            <mxPoint x="20.5" y="381" as="targetPoint" />
          </mxGeometry>
        </mxCell>
        <mxCell id="15ZCXB6HI7PK215MOb9F-10" value="" style="endArrow=classic;html=1;rounded=0;entryX=0.113;entryY=1.03;entryDx=0;entryDy=0;entryPerimeter=0;" edge="1" parent="1">
          <mxGeometry width="50" height="50" relative="1" as="geometry">
            <mxPoint x="21" y="479" as="sourcePoint" />
            <mxPoint x="20.5" y="450" as="targetPoint" />
          </mxGeometry>
        </mxCell>
        <mxCell id="15ZCXB6HI7PK215MOb9F-18" value="" style="endArrow=none;html=1;rounded=0;exitX=0;exitY=0;exitDx=0;exitDy=0;entryX=1;entryY=1;entryDx=0;entryDy=0;" edge="1" parent="1" source="nwu90o907hgscEtCztIc-14" target="nwu90o907hgscEtCztIc-4">
          <mxGeometry width="50" height="50" relative="1" as="geometry">
            <mxPoint x="-100" y="210" as="sourcePoint" />
            <mxPoint x="-50" y="160" as="targetPoint" />
          </mxGeometry>
        </mxCell>
        <mxCell id="15ZCXB6HI7PK215MOb9F-19" value="" style="endArrow=classic;html=1;rounded=0;exitX=0;exitY=0.5;exitDx=0;exitDy=0;entryX=1;entryY=0.5;entryDx=0;entryDy=0;" edge="1" parent="1" source="15ZCXB6HI7PK215MOb9F-2" target="nwu90o907hgscEtCztIc-151">
          <mxGeometry width="50" height="50" relative="1" as="geometry">
            <mxPoint x="-160" y="260" as="sourcePoint" />
            <mxPoint x="-110" y="210" as="targetPoint" />
          </mxGeometry>
        </mxCell>
        <mxCell id="15ZCXB6HI7PK215MOb9F-20" value="" style="endArrow=classic;html=1;rounded=0;exitX=0;exitY=0.25;exitDx=0;exitDy=0;entryX=1;entryY=0.5;entryDx=0;entryDy=0;" edge="1" parent="1" source="15ZCXB6HI7PK215MOb9F-5" target="nwu90o907hgscEtCztIc-151">
          <mxGeometry width="50" height="50" relative="1" as="geometry">
            <mxPoint x="-30" y="300" as="sourcePoint" />
            <mxPoint x="-95" y="405" as="targetPoint" />
          </mxGeometry>
        </mxCell>
        <mxCell id="15ZCXB6HI7PK215MOb9F-21" value="" style="endArrow=classic;html=1;rounded=0;" edge="1" parent="1">
          <mxGeometry width="50" height="50" relative="1" as="geometry">
            <mxPoint x="-40" y="440" as="sourcePoint" />
            <mxPoint x="-100" y="400" as="targetPoint" />
          </mxGeometry>
        </mxCell>
        <mxCell id="15ZCXB6HI7PK215MOb9F-22" value="" style="endArrow=classic;html=1;rounded=0;" edge="1" parent="1">
          <mxGeometry width="50" height="50" relative="1" as="geometry">
            <mxPoint x="-39" y="360" as="sourcePoint" />
            <mxPoint x="-100" y="400" as="targetPoint" />
          </mxGeometry>
        </mxCell>
        <mxCell id="15ZCXB6HI7PK215MOb9F-23" value="" style="endArrow=classic;html=1;rounded=0;exitX=0;exitY=0.5;exitDx=0;exitDy=0;entryX=1;entryY=0.5;entryDx=0;entryDy=0;" edge="1" parent="1" source="nwu90o907hgscEtCztIc-151" target="nwu90o907hgscEtCztIc-149">
          <mxGeometry width="50" height="50" relative="1" as="geometry">
            <mxPoint x="-320" y="440" as="sourcePoint" />
            <mxPoint x="-270" y="390" as="targetPoint" />
          </mxGeometry>
        </mxCell>
        <mxCell id="15ZCXB6HI7PK215MOb9F-24" value="" style="endArrow=none;html=1;rounded=0;exitX=0;exitY=0;exitDx=0;exitDy=0;" edge="1" parent="1" source="nwu90o907hgscEtCztIc-149">
          <mxGeometry width="50" height="50" relative="1" as="geometry">
            <mxPoint x="-560" y="410" as="sourcePoint" />
            <mxPoint x="-510" y="360" as="targetPoint" />
          </mxGeometry>
        </mxCell>
        <mxCell id="15ZCXB6HI7PK215MOb9F-26" value="" style="endArrow=none;html=1;rounded=0;entryX=0.091;entryY=0.75;entryDx=0;entryDy=0;exitX=1;exitY=0;exitDx=0;exitDy=0;entryPerimeter=0;" edge="1" parent="1" source="nwu90o907hgscEtCztIc-149" target="nwu90o907hgscEtCztIc-154">
          <mxGeometry width="50" height="50" relative="1" as="geometry">
            <mxPoint x="-370" y="389" as="sourcePoint" />
            <mxPoint x="-334" y="355" as="targetPoint" />
          </mxGeometry>
        </mxCell>
        <mxCell id="15ZCXB6HI7PK215MOb9F-28" value="View Leave" style="rhombus;whiteSpace=wrap;html=1;" vertex="1" parent="1">
          <mxGeometry x="-462.5" y="240" width="85" height="50" as="geometry" />
        </mxCell>
        <mxCell id="15ZCXB6HI7PK215MOb9F-29" value="" style="endArrow=classic;html=1;rounded=0;entryX=0.113;entryY=1.03;entryDx=0;entryDy=0;entryPerimeter=0;" edge="1" parent="1">
          <mxGeometry width="50" height="50" relative="1" as="geometry">
            <mxPoint x="-420" y="370" as="sourcePoint" />
            <mxPoint x="-419.5100000000002" y="291.20000000000005" as="targetPoint" />
          </mxGeometry>
        </mxCell>
        <mxCell id="15ZCXB6HI7PK215MOb9F-30" value="" style="endArrow=classic;html=1;rounded=0;entryX=0;entryY=0.5;entryDx=0;entryDy=0;" edge="1" parent="1" source="15ZCXB6HI7PK215MOb9F-28" target="nwu90o907hgscEtCztIc-14">
          <mxGeometry width="50" height="50" relative="1" as="geometry">
            <mxPoint x="-420" y="189.28932188134524" as="sourcePoint" />
            <mxPoint x="-420" y="139.28932188134524" as="targetPoint" />
            <Array as="points">
              <mxPoint x="-420" y="200" />
            </Array>
          </mxGeometry>
        </mxCell>
      </root>
    </mxGraphModel>
  </diagram>
</mxfile>
